# xmcd
#
# Track frame offsets:
#	150
#	4520
#	13407
#	18082
#	22105
#	45397
#	56785
#	62532
#	78612
#	80052
#	86735
#	88465
#	97257
#	99710
#	104152
#	114410
#	116670
#	120450
#	134042
#	140230
#	145367
#	162392
#	180170
#	192905
#	199202
#	201842
#
# Disc length: 2877 seconds
#
# Revision: 1
# Processed by: cddbd v1.5.2PL0 Copyright (c) Steve Scherf et al.
# Submitted via: audiograbber 1.81.03
#
DISCID=830b3b1a
DTITLE=Grampy's Knee - House Of Crackers
DYEAR=1999
DGENRE=Country
TTITLE0=Grampy's Knee
TTITLE1=House Of Crackers
TTITLE2=It's You
TTITLE3=You Oh You
TTITLE4=More Stories Than You Can Count
TTITLE5=Manners
TTITLE6=A Tree With A Door
TTITLE7=Tree
TTITLE8=Witches Broom Boom Boom Room
TTITLE9=We Are Free
TTITLE10=Cloth Closet Room
TTITLE11=Raggedy Man
TTITLE12=Mustard And Bananas
TTITLE13=A Door Made Out Of Beef Jerky
TTITLE14=Cowgirls
TTITLE15=I Think I've Found Them
TTITLE16=The`Door Made Up Of Clouds
TTITLE17=I Believe
TTITLE18=You Believe
TTITLE19=Bellbottom Doors
TTITLE20=Elephant Cracker Funky Fever
TTITLE21=Tickling The Tongue Of The Toad
TTITLE22=We Are Who We Are
TTITLE23=Goodnight You
TTITLE24=Me Oh Me
TTITLE25=Believe
EXTD=
EXTT0=
EXTT1=
EXTT2=
EXTT3=
EXTT4=
EXTT5=
EXTT6=
EXTT7=
EXTT8=
EXTT9=
EXTT10=
EXTT11=
EXTT12=
EXTT13=
EXTT14=
EXTT15=
EXTT16=
EXTT17=
EXTT18=
EXTT19=
EXTT20=
EXTT21=
EXTT22=
EXTT23=
EXTT24=
EXTT25=
PLAYORDER=
